# Blender v2.93.4 OBJ File: 'GD3ItemBox.blend'
# www.blender.org
mtllib GD3ItemBox.mtl
o Cube
v 0.820534 1.837645 -1.000000
v 0.820534 2.032018 -0.805626
v 1.014908 1.837645 -0.805626
v 0.820534 0.032018 -0.805626
v 0.820534 0.226392 -1.000000
v 1.014908 0.226392 -0.805626
v 1.014908 1.837645 0.805626
v 0.820534 2.032018 0.805626
v 0.820534 1.837645 1.000000
v 1.014908 0.226392 0.805626
v 0.820534 0.226392 1.000000
v 0.820534 0.032018 0.805626
v -0.790719 1.837645 -1.000000
v -0.985092 1.837645 -0.805626
v -0.790719 2.032018 -0.805626
v -0.985092 0.226392 -0.805626
v -0.790719 0.226392 -1.000000
v -0.790719 0.032018 -0.805626
v -0.985092 1.837645 0.805626
v -0.790719 1.837645 1.000000
v -0.790719 2.032018 0.805626
v -0.790719 0.032018 0.805626
v -0.790719 0.226392 1.000000
v -0.985092 0.226392 0.805626
v -0.867665 0.032018 -0.882573
v -0.867665 0.032018 0.882573
v -0.985092 0.149446 0.882573
v -0.985092 0.149446 -0.882573
v 0.897480 0.032018 -0.882573
v -0.867665 0.149446 -1.000000
v 0.897480 0.149446 -1.000000
v 1.014908 1.914591 -0.882573
v 1.014908 0.149446 -0.882573
v 0.897480 1.914591 -1.000000
v -0.867665 0.149446 1.000000
v -0.867665 1.914591 1.000000
v -0.985092 1.914591 0.882573
v 0.897480 1.914591 1.000000
v 0.897480 0.149446 1.000000
v 1.014908 0.149446 0.882573
v 1.014908 1.914591 0.882573
v -0.867665 1.914591 -1.000000
v -0.985092 1.914591 -0.882573
v 0.897480 2.032018 0.882573
v -0.867665 2.032018 0.882573
v 0.897480 2.032018 -0.882573
v 0.897480 0.032018 0.882573
v -0.867665 2.032018 -0.882573
v -0.790719 0.162770 -0.805626
v -0.790719 0.162770 0.805626
v -0.854341 0.226392 0.805626
v -0.854341 0.226392 -0.805626
v 0.820534 0.162770 -0.805626
v -0.790719 0.226392 -0.869248
v 0.820534 0.226392 -0.869248
v 0.884156 1.837645 -0.805626
v 0.884156 0.226392 -0.805626
v 0.820534 1.837645 -0.869248
v -0.790719 0.226392 0.869248
v -0.790719 1.837645 0.869248
v -0.854341 1.837645 0.805626
v 0.820534 1.837645 0.869248
v 0.820534 0.226392 0.869248
v 0.884156 0.226392 0.805626
v 0.884156 1.837645 0.805626
v -0.790719 1.837645 -0.869248
v -0.854341 1.837645 -0.805626
v 0.820534 1.901267 0.805626
v -0.790719 1.901267 0.805626
v 0.820534 1.901267 -0.805626
v 0.820534 0.162770 0.805626
v -0.790719 1.901267 -0.805626
vt 0.399297 0.475703
vt 0.399297 0.274297
vt 0.399297 0.274297
vt 0.399297 0.475703
vt 0.600703 0.274297
vt 0.600703 0.274297
vt 0.399297 0.975703
vt 0.399297 0.774297
vt 0.399297 0.774297
vt 0.399297 0.975703
vt 0.149297 0.524297
vt 0.350703 0.524297
vt 0.350703 0.524297
vt 0.149297 0.524297
vt 0.600703 0.725703
vt 0.399297 0.725703
vt 0.399297 0.725703
vt 0.600703 0.725703
vt 0.610322 0.485322
vt 0.625000 0.485322
vt 0.610322 0.500000
vt 0.360322 0.514678
vt 0.360322 0.500000
vt 0.375000 0.514678
vt 0.610322 0.735322
vt 0.625000 0.735322
vt 0.610322 0.750000
vt 0.389678 0.750000
vt 0.375000 0.764678
vt 0.375000 0.764678
vt 0.610322 0.250000
vt 0.610322 0.250000
vt 0.625000 0.235322
vt 0.389678 0.235322
vt 0.389678 0.250000
vt 0.375000 0.235322
vt 0.610322 0.014678
vt 0.610322 0.000000
vt 0.625000 0.014678
vt 0.139678 0.735322
vt 0.139678 0.750000
vt 0.125000 0.735322
vt 0.139678 0.514678
vt 0.125000 0.514678
vt 0.139678 0.500000
vt 0.610322 0.514678
vt 0.389678 0.514678
vt 0.389678 0.485322
vt 0.389678 0.000000
vt 0.389678 0.014678
vt 0.610322 0.764678
vt 0.389678 0.764678
vt 0.389678 0.735322
vt 0.610322 0.264678
vt 0.389678 0.264678
vt 0.610322 0.235322
vt 0.625000 0.764678
vt 0.625000 0.985322
vt 0.610322 0.985322
vt 0.639678 0.514678
vt 0.639678 0.735322
vt 0.360322 0.735322
vt 0.360322 0.750000
vt 0.625000 0.264678
vt 0.350703 0.725703
vt 0.149297 0.725703
vt 0.149297 0.725703
vt 0.350703 0.725703
vt 0.399297 0.024297
vt 0.399297 0.225703
vt 0.600703 0.524297
vt 0.399297 0.524297
vt 0.600703 0.475703
vt 0.600703 0.975703
vt 0.389678 0.985322
vt 0.600703 0.024297
vt 0.600703 0.774297
vt 0.600703 0.225703
vt 0.649297 0.725703
vt 0.850703 0.725703
vt 0.860322 0.735322
vt 0.649297 0.524297
vt 0.850703 0.524297
vt 0.860322 0.514678
vt 0.850703 0.725703
vt 0.850703 0.524297
vt 0.399297 0.225703
vt 0.600703 0.225703
vt 0.600703 0.524297
vt 0.399297 0.524297
vt 0.600703 0.024297
vt 0.649297 0.725703
vt 0.600703 0.475703
vt 0.649297 0.524297
vt 0.600703 0.975703
vt 0.600703 0.774297
vt 0.399297 0.024297
vt 0.000000 0.000000
vt 0.000000 0.000000
vt 0.000000 0.000000
vt 0.000000 0.000000
vt 0.000000 0.000000
vt 0.000000 0.000000
vt 0.000000 0.000000
vt 0.000000 0.000000
vt 0.000000 0.000000
vn 0.0000 1.0000 0.0000
vn 1.0000 0.0000 0.0000
vn 0.0000 0.0000 1.0000
vn 0.0000 0.0000 -1.0000
vn 0.5774 0.5774 -0.5774
vn 0.5774 -0.5774 -0.5774
vn 0.5774 0.5774 0.5774
vn 0.5774 -0.5774 0.5774
vn -0.5774 0.5774 -0.5774
vn -0.5774 -0.5774 -0.5774
vn -0.5774 0.5774 0.5774
vn -0.5774 -0.5774 0.5774
vn -0.7071 -0.7071 0.0000
vn 0.0000 -0.7071 -0.7071
vn 0.7071 0.0000 -0.7071
vn -0.7071 0.0000 0.7071
vn 0.7071 0.0000 0.7071
vn -0.7071 0.0000 -0.7071
vn 0.0000 0.7071 0.7071
vn 0.7071 0.7071 0.0000
vn 0.0000 -0.7071 0.7071
vn -0.7071 0.7071 0.0000
vn 0.0000 0.7071 -0.7071
vn 0.7071 -0.7071 0.0000
vn 0.0000 -1.0000 0.0000
vn -1.0000 0.0000 0.0000
vn 0.5774 -0.5774 0.5773
vn -0.5774 -0.5774 0.5773
vn -0.5774 -0.5774 -0.5773
vn 0.5774 -0.5774 -0.5773
usemtl æè´¨
s off
f 5/1/1 17/2/1 54/3/1 55/4/1
f 17/2/2 13/5/2 66/6/2 54/3/2
f 23/7/1 11/8/1 63/9/1 59/10/1
f 18/11/3 4/12/3 53/13/3 49/14/3
f 7/15/4 10/16/4 64/17/4 65/18/4
f 34/19/5 46/20/5 32/21/5
f 29/22/6 31/23/6 33/24/6
f 41/25/7 44/26/7 38/27/7
f 40/28/8 39/29/8 47/30/8
f 42/31/9 43/32/9 48/33/9
f 28/34/10 30/35/10 25/36/10
f 37/37/11 36/38/11 45/39/11
f 26/40/12 35/41/12 27/42/12
f 25/43/13 26/40/13 27/42/13 28/44/13
f 29/22/14 25/43/14 30/45/14 31/23/14
f 32/46/15 33/47/15 31/48/15 34/19/15
f 35/49/16 36/38/16 37/37/16 27/50/16
f 38/51/17 39/52/17 40/53/17 41/25/17
f 42/54/18 30/55/18 28/34/18 43/56/18
f 44/57/19 45/58/19 36/59/19 38/51/19
f 46/60/20 44/61/20 41/25/20 32/46/20
f 26/40/21 47/62/21 39/63/21 35/41/21
f 45/39/22 48/33/22 43/56/22 37/37/22
f 48/64/23 46/20/23 34/19/23 42/54/23
f 47/62/24 29/22/24 33/47/24 40/53/24
f 12/65/4 22/66/4 50/67/4 71/68/4
f 18/11/25 22/66/25 26/40/25 25/43/25
f 24/69/26 16/70/26 28/34/26 27/50/26
f 4/12/25 18/11/25 25/43/25 29/22/25
f 17/2/4 5/1/4 31/48/4 30/55/4
f 3/71/2 6/72/2 33/47/2 32/46/2
f 5/1/4 1/73/4 34/19/4 31/48/4
f 23/7/3 20/74/3 36/59/3 35/75/3
f 19/76/26 24/69/26 27/50/26 37/37/26
f 9/77/3 11/8/3 39/52/3 38/51/3
f 10/16/2 7/15/2 41/25/2 40/53/2
f 13/5/4 17/2/4 30/55/4 42/54/4
f 16/70/26 14/78/26 43/56/26 28/34/26
f 8/79/1 21/80/1 45/81/1 44/61/1
f 20/74/3 9/77/3 38/51/3 36/59/3
f 2/82/1 8/79/1 44/61/1 46/60/1
f 7/15/2 3/71/2 32/46/2 41/25/2
f 22/66/25 12/65/25 47/62/25 26/40/25
f 11/8/3 23/7/3 35/75/3 39/52/3
f 21/80/1 15/83/1 48/84/1 45/81/1
f 14/78/26 19/76/26 37/37/26 43/56/26
f 15/83/1 2/82/1 46/60/1 48/84/1
f 1/73/4 13/5/4 42/54/4 34/19/4
f 12/65/25 4/12/25 29/22/25 47/62/25
f 6/72/2 10/16/2 40/53/2 33/47/2
f 15/83/2 21/80/2 69/85/2 72/86/2
f 14/78/3 16/70/3 52/87/3 67/88/3
f 6/72/3 3/71/3 56/89/3 57/90/3
f 19/76/25 14/78/25 67/88/25 61/91/25
f 21/80/4 8/79/4 68/92/4 69/85/4
f 1/73/26 5/1/26 55/4/26 58/93/26
f 2/82/3 15/83/3 72/86/3 70/94/3
f 9/77/25 20/74/25 60/95/25 62/96/25
f 20/74/2 23/7/2 59/10/2 60/95/2
f 13/5/25 1/73/25 58/93/25 66/6/25
f 8/79/26 2/82/26 70/94/26 68/92/26
f 24/69/4 19/76/4 61/91/4 51/97/4
f 4/12/26 12/65/26 71/68/26 53/13/26
f 22/66/2 18/11/2 49/14/2 50/67/2
f 3/71/25 7/15/25 65/18/25 56/89/25
f 11/8/26 9/77/26 62/96/26 63/9/26
f 10/16/1 6/72/1 57/90/1 64/17/1
f 16/70/1 24/69/1 51/97/1 52/87/1
f 53/13/19 55/4/19 54/3/19 49/14/19
f 49/14/20 52/87/20 51/97/20 50/67/20
f 66/6/17 67/88/17 52/87/17 54/3/17
f 54/3/7 52/87/7 49/14/7
f 72/86/21 66/6/21 58/93/21 70/94/21
f 69/85/24 61/91/24 67/88/24 72/86/24
f 50/67/23 59/10/23 63/9/23 71/68/23
f 66/6/27 72/86/27 67/88/27
f 56/89/16 58/93/16 55/4/16 57/90/16
f 70/94/13 56/89/13 65/18/13 68/92/13
f 71/68/22 64/17/22 57/90/22 53/13/22
f 55/4/11 53/13/11 57/90/11
f 56/98/28 70/99/28 58/100/28
f 62/96/18 65/18/18 64/17/18 63/9/18
f 68/92/14 62/96/14 60/95/14 69/85/14
f 62/101/29 68/102/29 65/103/29
f 63/9/9 64/17/9 71/68/9
f 59/10/15 51/97/15 61/91/15 60/95/15
f 61/91/30 69/85/30 60/95/30
f 59/104/5 50/105/5 51/106/5
o Cube.001
v -0.175732 0.859085 0.287034
v -0.175732 1.469085 0.287034
v -0.175732 0.859085 -0.322966
v -0.175732 1.469085 -0.322966
v 0.434268 0.859085 0.287034
v 0.434268 1.469085 0.287034
v 0.434268 0.859085 -0.322966
v 0.434268 1.469085 -0.322966
vt 0.375000 0.000000
vt 0.625000 0.000000
vt 0.625000 0.250000
vt 0.375000 0.250000
vt 0.625000 0.500000
vt 0.375000 0.500000
vt 0.625000 0.750000
vt 0.375000 0.750000
vt 0.625000 1.000000
vt 0.375000 1.000000
vt 0.125000 0.500000
vt 0.125000 0.750000
vt 0.875000 0.500000
vt 0.875000 0.750000
vn -1.0000 0.0000 0.0000
vn 0.0000 0.0000 -1.0000
vn 1.0000 0.0000 0.0000
vn 0.0000 0.0000 1.0000
vn 0.0000 -1.0000 0.0000
vn 0.0000 1.0000 0.0000
usemtl Material.004
s off
f 73/107/31 74/108/31 76/109/31 75/110/31
f 75/110/32 76/109/32 80/111/32 79/112/32
f 79/112/33 80/111/33 78/113/33 77/114/33
f 77/114/34 78/113/34 74/115/34 73/116/34
f 75/117/35 79/112/35 77/114/35 73/118/35
f 80/111/36 76/119/36 74/120/36 78/113/36
o Cube.002_Cube.005
v -0.341082 0.679674 0.405510
v -0.341082 1.039674 0.405510
v -0.341082 0.679674 0.045510
v -0.341082 1.039674 0.045510
v 0.018918 0.679674 0.405510
v 0.018918 1.039674 0.405510
v 0.018918 0.679674 0.045510
v 0.018918 1.039674 0.045510
vn -1.0000 0.0000 0.0000
vn 0.0000 0.0000 -1.0000
vn 1.0000 0.0000 0.0000
vn 0.0000 0.0000 1.0000
vn 0.0000 -1.0000 0.0000
vn 0.0000 1.0000 0.0000
usemtl Material.005
s off
f 81//37 82//37 84//37 83//37
f 83//38 84//38 88//38 87//38
f 87//39 88//39 86//39 85//39
f 85//40 86//40 82//40 81//40
f 83//41 87//41 85//41 81//41
f 88//42 84//42 82//42 86//42
o Cube.003_Cube.006
v 0.162930 0.434445 -0.007571
v 0.162930 0.664445 -0.007571
v 0.162930 0.434445 -0.237571
v 0.162930 0.664445 -0.237571
v 0.392930 0.434445 -0.007571
v 0.392930 0.664445 -0.007571
v 0.392930 0.434445 -0.237571
v 0.392930 0.664445 -0.237571
vn -1.0000 0.0000 0.0000
vn 0.0000 0.0000 -1.0000
vn 1.0000 0.0000 0.0000
vn 0.0000 0.0000 1.0000
vn 0.0000 -1.0000 0.0000
vn 0.0000 1.0000 0.0000
usemtl Material.007
s off
f 89//43 90//43 92//43 91//43
f 91//44 92//44 96//44 95//44
f 95//45 96//45 94//45 93//45
f 93//46 94//46 90//46 89//46
f 91//47 95//47 93//47 89//47
f 96//48 92//48 90//48 94//48
o Cube.004_Cube.007
v -0.021127 1.494483 0.508826
v -0.021127 1.634483 0.508826
v -0.021127 1.494483 0.368826
v -0.021127 1.634483 0.368826
v 0.118873 1.494483 0.508826
v 0.118873 1.634483 0.508826
v 0.118873 1.494483 0.368826
v 0.118873 1.634483 0.368826
vn -1.0000 0.0000 0.0000
vn 0.0000 0.0000 -1.0000
vn 1.0000 0.0000 0.0000
vn 0.0000 0.0000 1.0000
vn 0.0000 -1.0000 0.0000
vn 0.0000 1.0000 0.0000
usemtl Material.006
s off
f 97//49 98//49 100//49 99//49
f 99//50 100//50 104//50 103//50
f 103//51 104//51 102//51 101//51
f 101//52 102//52 98//52 97//52
f 99//53 103//53 101//53 97//53
f 104//54 100//54 98//54 102//54
o Cube.005_Cube.008
v -0.370140 0.350166 -0.414823
v -0.370140 0.514142 -0.414823
v -0.370140 0.350166 -0.578799
v -0.370140 0.514142 -0.578799
v -0.206164 0.350166 -0.414823
v -0.206164 0.514142 -0.414823
v -0.206164 0.350166 -0.578799
v -0.206164 0.514142 -0.578799
vn -1.0000 0.0000 0.0000
vn 0.0000 0.0000 -1.0000
vn 1.0000 0.0000 0.0000
vn 0.0000 0.0000 1.0000
vn 0.0000 -1.0000 0.0000
vn 0.0000 1.0000 0.0000
usemtl Material.008
s off
f 105//55 106//55 108//55 107//55
f 107//56 108//56 112//56 111//56
f 111//57 112//57 110//57 109//57
f 109//58 110//58 106//58 105//58
f 107//59 111//59 109//59 105//59
f 112//60 108//60 106//60 110//60
